<?xml version="1.0" standalone="no"?><!DOCTYPE svg PUBLIC "-//W3C//DTD SVG 1.1//EN" "http://www.w3.org/Graphics/SVG/1.1/DTD/svg11.dtd"><svg t="1659344601507" class="icon" viewBox="0 0 1024 1024" version="1.1" xmlns="http://www.w3.org/2000/svg" p-id="4122" xmlns:xlink="http://www.w3.org/1999/xlink" width="200" height="200"><defs><style type="text/css">@font-face { font-family: feedback-iconfont; src: url("//at.alicdn.com/t/font_1031158_u69w8yhxdu.woff2?t=1630033759944") format("woff2"), url("//at.alicdn.com/t/font_1031158_u69w8yhxdu.woff?t=1630033759944") format("woff"), url("//at.alicdn.com/t/font_1031158_u69w8yhxdu.ttf?t=1630033759944") format("truetype"); }
</style></defs><path d="M279 331L98 512l45.3 45.3 181-181.1L279 331z" p-id="4123"></path><path d="M143.3 466.7L98 512l181 181 45.3-45.2-181-181.1zM745 331l-45.3 45.2 181 181.1L926 512 745 331z" p-id="4124"></path><path d="M880.7 466.7l-181 181.1L745 693l181-181-45.3-45.3zM644.275 218.867l55.424 32-320 554.24-55.424-32zM64 960v-64h896v64zM64 128V64h896v64z" p-id="4125"></path></svg>