<?xml version="1.0" standalone="no"?><!DOCTYPE svg PUBLIC "-//W3C//DTD SVG 1.1//EN" "http://www.w3.org/Graphics/SVG/1.1/DTD/svg11.dtd"><svg t="1659341501925" class="icon" viewBox="0 0 1024 1024" version="1.1" xmlns="http://www.w3.org/2000/svg" p-id="3427" xmlns:xlink="http://www.w3.org/1999/xlink" width="200" height="200"><defs><style type="text/css">@font-face { font-family: feedback-iconfont; src: url("//at.alicdn.com/t/font_1031158_u69w8yhxdu.woff2?t=1630033759944") format("woff2"), url("//at.alicdn.com/t/font_1031158_u69w8yhxdu.woff?t=1630033759944") format("woff"), url("//at.alicdn.com/t/font_1031158_u69w8yhxdu.ttf?t=1630033759944") format("truetype"); }
</style></defs><path d="M695.308642 594.17284H309.728395c-18.962963 0-37.925926 18.962963-37.925926 37.925925s18.962963 37.925926 37.925926 37.925926h385.580247c18.962963 0 37.925926-18.962963 37.925926-37.925926s-18.962963-37.925926-37.925926-37.925925zM309.728395 512h183.308642c18.962963 0 37.925926-18.962963 37.925926-37.925926s-12.641975-37.925926-37.925926-37.925926H309.728395c-18.962963 0-37.925926 18.962963-37.925926 37.925926s18.962963 37.925926 37.925926 37.925926z m385.580247 240.197531H309.728395c-18.962963 0-37.925926 18.962963-37.925926 37.925926s18.962963 37.925926 37.925926 37.925926h385.580247c18.962963 0 37.925926-18.962963 37.925926-37.925926 0-25.283951-18.962963-37.925926-37.925926-37.925926z" p-id="3428"></path><path d="M935.506173 322.37037V316.049383v-6.320988L651.061728 18.962963h-6.320987H208.592593c-63.209877 0-113.777778 50.567901-113.777778 113.777778v777.481481c0 63.209877 50.567901 113.777778 113.777778 113.777778h613.135802c63.209877 0 113.777778-50.567901 113.777778-113.777778V821.728395c0-18.962963-18.962963-37.925926-37.925926-37.925926s-37.925926 18.962963-37.925926 37.925926v88.493827c0 18.962963-18.962963 37.925926-37.925926 37.925926H208.592593c-18.962963 0-37.925926-18.962963-37.925926-37.925926V113.777778c0-18.962963 18.962963-37.925926 37.925926-37.925926h372.938271v252.839506c0 18.962963 18.962963 37.925926 37.925926 37.925926h246.518519V632.098765c0 18.962963 18.962963 37.925926 37.925926 37.925926s37.925926-18.962963 37.925925-37.925926l-6.320987-309.728395c0 6.320988 0 6.320988 0 0z m-278.123457-31.604938V132.740741l151.703704 158.024691h-151.703704z" p-id="3429"></path></svg>