<svg xmlns="http://www.w3.org/2000/svg" xmlns:xlink="http://www.w3.org/1999/xlink" fill="none" version="1.1" width="16" height="16" viewBox="0 0 16 16"><g style="opacity:0.800000011920929;mix-blend-mode:passthrough"><g><path d="" fill="#FF0033" fill-opacity="0"/></g><g><path d="M7.326665017604828,0.9053338255119323C7.719025017604828,0.5871072255119324,8.280635017604828,0.5871072255119324,8.672995017604828,0.9053338255119323L14.921965017604828,5.946333825511933C15.391665017604828,6.325003825511932,15.470965017604827,7.019663825511932,15.098965017604828,7.498333825511932C14.950865017604828,7.689743825511933,14.742965017604828,7.825993825511932,14.508365017604827,7.885333825511933L14.450365017604828,7.898003825511933L14.450665017604829,13.546663825511933C14.450665017604829,14.474363825511933,13.755665017604828,15.241663825511932,12.848665017604828,15.325963825511932L12.774665017604828,15.331663825511932L12.697365017604827,15.333363825511933L3.302665017604828,15.333363825511933C2.367665017604828,15.333363825511933,1.5986650176048278,14.586363825511933,1.550998017604828,13.625363825511933L1.549332017604828,13.546663825511933L1.548998017604828,7.898003825511933L1.5106650176048277,7.890333825511933C1.0466650176048278,7.783333825511932,0.6956650176048279,7.373333825511932,0.6683316576048279,6.875333825511932L0.6666650176048279,6.812663825511932C0.6666650176048279,6.475003825511933,0.8179980176048278,6.156003825511933,1.0779980176048278,5.946003825511933L7.326665017604828,0.9053338255119323ZM8.056665017604828,1.6870038255119324C8.023635017604828,1.6602278255119325,7.976365017604828,1.6602278255119325,7.943335017604828,1.6870038255119324L1.7009950176048279,6.736663825511933C1.6790250176048278,6.754673825511932,1.6662990176048278,6.781593825511933,1.666332017604828,6.810003825511933C1.666332017604828,6.862003825511932,1.7073350176048279,6.904003825511932,1.7579950176048278,6.904003825511932L2.0519950176048276,6.904003825511932C2.3259950176048276,6.9036638255119325,2.547995017604828,7.130663825511933,2.547995017604828,7.410333825511932L2.547995017604828,13.543663825511933L2.548995017604828,13.596663825511932C2.569335017604828,14.008363825511932,2.902995017604828,14.333363825511933,3.307995017604828,14.333363825511933L12.679365017604828,14.333363825511933L12.731365017604828,14.331963825511933C13.133965017604828,14.311363825511933,13.451665017604828,13.970363825511932,13.451665017604828,13.556663825511933L13.451665017604828,7.410663825511932C13.451665017604828,7.130663825511933,13.673665017604828,6.904003825511932,13.947665017604828,6.904003825511932L14.241665017604827,6.904003825511932C14.269665017604828,6.904003825511932,14.295965017604829,6.891003825511932,14.313665017604828,6.868663825511932C14.344965017604828,6.827913825511932,14.338365017604827,6.769673825511933,14.298665017604828,6.737003825511932L8.056665017604828,1.6870038255119324ZM10.214995017604828,10.510333825511932C10.393385017604828,10.721163825511933,10.367115017604828,11.036563825511932,10.156335017604828,11.214963825511932C9.544665017604828,11.732663825511933,8.876665017604829,11.999963825511932,8.166665017604828,11.999963825511932C7.456665017604828,11.999963825511932,6.788665017604828,11.732663825511933,6.176665017604828,11.214963825511932C5.965765017604828,11.036463825511932,5.939585017604828,10.720763825511932,6.118195017604828,10.509893825511933C6.296815017604828,10.299043825511932,6.612555017604828,10.272973825511933,6.823335017604828,10.451663825511933C7.260995017604828,10.822663825511933,7.703995017604828,10.999963825511932,8.166665017604828,10.999963825511932C8.628995017604828,10.999963825511932,9.071995017604827,10.822663825511933,9.509995017604828,10.451663825511933C9.720835017604827,10.273053825511932,10.036585017604828,10.299323825511932,10.214995017604828,10.510333825511932Z" fill="#FFFFFF" fill-opacity="1"/></g></g></svg>