<?xml version="1.0" standalone="no"?><!DOCTYPE svg PUBLIC "-//W3C//DTD SVG 1.1//EN" "http://www.w3.org/Graphics/SVG/1.1/DTD/svg11.dtd"><svg t="1659341442456" class="icon" viewBox="0 0 1024 1024" version="1.1" xmlns="http://www.w3.org/2000/svg" p-id="2465" xmlns:xlink="http://www.w3.org/1999/xlink" width="200" height="200"><defs><style type="text/css">@font-face { font-family: feedback-iconfont; src: url("//at.alicdn.com/t/font_1031158_u69w8yhxdu.woff2?t=1630033759944") format("woff2"), url("//at.alicdn.com/t/font_1031158_u69w8yhxdu.woff?t=1630033759944") format("woff"), url("//at.alicdn.com/t/font_1031158_u69w8yhxdu.ttf?t=1630033759944") format("truetype"); }
</style></defs><path d="M432.233412 488.146824c70.234353-29.123765 119.792941-98.349176 119.792941-178.989177 0-106.827294-86.904471-193.731765-193.731765-193.731765S164.547765 202.330353 164.547765 309.157647c0 80.64 49.558588 149.880471 119.792941 179.004235C126.72 522.194824 8.222118 662.633412 8.222118 830.298353c0 41.502118 28.988235 55.190588 52.284235 66.183529l1.415529 0.587294c93.123765 32.873412 227.779765 41.652706 292.668236 41.652706 70.761412 0 209.272471-11.474824 301.312-43.279058 34.831059-13.357176 52.495059-35.267765 52.495058-65.144471-0.015059-167.664941-118.512941-308.118588-276.163764-342.151529zM194.665412 309.157647c0-90.217412 73.396706-163.614118 163.614117-163.614118s163.614118 73.396706 163.614118 163.614118-73.396706 163.614118-163.614118 163.614118-163.614118-73.396706-163.614117-163.614118zM645.571765 867.147294c-87.431529 30.192941-224.888471 41.441882-290.996706 41.441882-62.795294 0-192.662588-8.357647-281.916235-39.68-26.142118-12.393412-34.319059-19.456-34.319059-38.610823 0-176.429176 143.525647-319.969882 319.954823-319.969882s319.969882 143.540706 319.969883 319.969882c0 11.324235-3.764706 25.750588-32.692706 36.848941z" p-id="2466"></path><path d="M965.857882 125.485176H694.979765c-31.382588 0-52.464941 31.789176-52.464941 61.470118v57.389177c0 20.208941-6.671059 43.309176-11.083295 49.724235-3.373176 4.803765-25.344 23.838118-43.745882 38.565647a15.058824 15.058824 0 0 0 7.107765 26.639059 758.362353 758.362353 0 0 1 44.739764 8.146823c-0.030118 1.475765-0.045176 3.087059-0.045176 4.864 0 39.318588 41.773176 39.318588 55.506824 39.318589H965.872941c31.774118 0 53.112471-32.120471 53.112471-62.117648V186.955294c0-29.680941-21.338353-61.470118-53.12753-61.470118z m23.009883 224.015059c0 14.787765-10.044235 32-22.994824 32H694.979765c-25.389176 0-25.389176-4.683294-25.389177-9.200941 0-4.954353 0.135529-8.493176 0.240941-11.38447l0.120471-3.629177c0.240941-11.655529-5.059765-16.218353-37.918118-22.347294 10.360471-8.990118 20.464941-18.386824 24.169412-23.777882 9.065412-13.146353 16.414118-43.098353 16.414118-66.800942v-57.389176c0-14.802824 9.562353-31.352471 22.347294-31.352471h270.878118c12.950588 0 22.994824 16.850824 22.994823 31.352471v162.529882z" p-id="2467"></path><path d="M928.632471 200.779294h-195.764706a7.529412 7.529412 0 0 0 0 15.058824h195.764706a7.529412 7.529412 0 0 0 0-15.058824zM928.632471 261.014588h-195.764706a7.529412 7.529412 0 0 0 0 15.058824h195.764706a7.529412 7.529412 0 0 0 0-15.058824zM823.220706 321.249882h-90.352941a7.529412 7.529412 0 0 0 0 15.058824h90.352941a7.529412 7.529412 0 0 0 0-15.058824z" p-id="2468"></path></svg>