<?xml version="1.0" standalone="no"?><!DOCTYPE svg PUBLIC "-//W3C//DTD SVG 1.1//EN" "http://www.w3.org/Graphics/SVG/1.1/DTD/svg11.dtd"><svg t="1659344890709" class="icon" viewBox="0 0 1024 1024" version="1.1" xmlns="http://www.w3.org/2000/svg" p-id="9711" xmlns:xlink="http://www.w3.org/1999/xlink" width="200" height="200"><defs><style type="text/css">@font-face { font-family: feedback-iconfont; src: url("//at.alicdn.com/t/font_1031158_u69w8yhxdu.woff2?t=1630033759944") format("woff2"), url("//at.alicdn.com/t/font_1031158_u69w8yhxdu.woff?t=1630033759944") format("woff"), url("//at.alicdn.com/t/font_1031158_u69w8yhxdu.ttf?t=1630033759944") format("truetype"); }
</style></defs><path d="M68.500117 182.022637l98.906637 0 0 98.906637-98.906637 0 0-98.906637Z" p-id="9712"></path><path d="M266.314415 182.022637l692.348508 0 0 98.906637-692.348508 0 0-98.906637Z" p-id="9713"></path><path d="M68.500117 429.290253l98.906637 0 0 98.906637-98.906637 0 0-98.906637Z" p-id="9714"></path><path d="M266.314415 429.290253l692.348508 0 0 98.906637-692.348508 0 0-98.906637Z" p-id="9715"></path><path d="M68.500117 726.011188l98.906637 0 0 98.906637-98.906637 0 0-98.906637Z" p-id="9716"></path><path d="M266.314415 726.011188l494.53421 0 0 98.906637-494.53421 0 0-98.906637Z" p-id="9717"></path></svg>