<svg xmlns="http://www.w3.org/2000/svg" xmlns:xlink="http://www.w3.org/1999/xlink" fill="none" version="1.1" width="16" height="16" viewBox="0 0 16 16"><g style="mix-blend-mode:passthrough"><g style="mix-blend-mode:passthrough"><g><path d="M6.58461,14.5184L3.54045,14.5184C2.71278,14.5429,2.0229029,13.864,2,13.0024L2,2.5166C2.0229028,1.655037,2.7127879999999998,0.9761245,3.54046,1.000643466L10.99572,1.000643466C11.81528,0.9883295,12.4923,1.663751,12.5152,2.5166L12.5152,7.15204C12.4606,7.40105,12.2479,7.57771,12.0025,7.57771C11.75718,7.57771,11.54444,7.40105,11.48993,7.15204L11.48993,2.5166C11.46795,2.23157,11.23887,2.0122,10.96417,2.01311L3.54046,2.01311C3.26576,2.01219,3.03668,2.23157,3.0147,2.5166L3.0147,13.0024C3.03406,13.2896,3.26388,13.5121,3.54046,13.5114L6.58461,13.5114C6.85175,13.5114,7.06831,13.7368,7.06831,14.0149C7.06831,14.293,6.85175,14.5184,6.58461,14.5184Z" fill="#FFFFFF" fill-opacity="1"/></g><g><path d="M9.707616092453003,4.9136822664642335L4.844338092453003,4.9136822664642335C4.577199092453003,4.9136822664642335,4.360639192453003,4.688260266464233,4.360639192453003,4.410187266464233C4.360639192453003,4.132114266464233,4.577199092453003,3.9066919991222333,4.844338092453003,3.9066922664642334L9.707626092453003,3.9066922664642334C9.974766092453002,3.9066919991222333,10.191326092453004,4.132114266464233,10.191326092453004,4.410187266464233C10.191326092453004,4.688260266464233,9.974766092453002,4.9136822664642335,9.707616092453003,4.9136822664642335ZM9.707616092453003,7.480412266464233L4.844338092453003,7.480412266464233C4.577014092453003,7.480682266464234,4.360166592453003,7.255172266464234,4.360166592453003,6.976912266464233C4.360166592453003,6.698652266464233,4.577014092453003,6.473142266464233,4.844338092453003,6.473422266464233L9.707626092453003,6.473422266464233C9.974956092453002,6.473142266464233,10.191796092453004,6.698652266464233,10.191796092453004,6.976912266464233C10.191796092453004,7.255182266464233,9.974956092453002,7.480682266464234,9.707616092453003,7.480412266464233ZM14.239666092453003,11.218312266464233C14.239666092453003,10.928262266464234,14.055646092453003,10.780492266464233,13.750706092453003,10.753132266464235C13.342606092453003,10.756942266464232,13.038466092453003,10.362542266464233,13.130306092453003,9.948622266464234C13.245976092453002,9.401352266464233,13.219696092453002,9.324732266464235,12.725476092453002,9.040152266464233L12.410016092453002,8.859542266464233C12.127436092453003,8.614732266464234,11.708406092453004,8.651282266464232,11.468916092453004,8.941632266464232C11.106136092453003,9.237162266464233,10.943146092453002,9.231692266464233,10.596156092453004,8.941632266464232C10.359706092453003,8.647882266464233,9.940386092453004,8.606422266464232,9.655046092453002,8.848592266464234L9.129276092453003,9.149592266464232C8.891726092453002,9.261872266464234,8.778926092453002,9.547022266464232,8.871666092453003,9.800862266464232C9.034656092453002,10.348142266464233,8.798046092453003,10.698402266464234,8.230236092453003,10.758602266464234C7.9936460924530035,10.785962266464233,7.835906092453003,10.917312266464233,7.825406092453003,11.136222266464234C7.799126092453003,11.568142266464234,7.799126092453003,12.001352266464233,7.825406092453003,12.433262266464233C7.825406092453003,12.712372266464234,8.004166092453003,12.854672266464233,8.298586092453004,12.882032266464233C8.701596092453002,12.879282266464234,9.008826092453003,13.256752266464233,8.940016092453003,13.670112266464233C8.834856092453002,14.244792266464234,8.834856092453002,14.304992266464234,9.360616092453004,14.600492266464233C9.471026092453002,14.666192266464233,9.581426092453004,14.737292266464234,9.697106092453003,14.797492266464234C9.966346092453003,14.988592266464233,10.330426092453003,14.939092266464234,10.543586092453003,14.682592266464233C10.948406092453002,14.321392266464233,11.069336092453003,14.326892266464233,11.495196092453003,14.682592266464233C11.664246092453002,14.799192266464233,11.839806092453003,14.905192266464233,12.020966092453003,14.999992266464233C12.404766092453002,14.748292266464233,12.783306092453003,14.529392266464233,13.125056092453002,14.266692266464233C13.205226092453003,14.138292266464234,13.222756092453002,13.978192266464234,13.172366092453004,13.834292266464233C12.977846092453003,13.341742266464234,13.288046092453003,12.909402266464234,13.834816092453003,12.854652266464234C14.060906092453003,12.854652266464234,14.213376092453004,12.706912266464233,14.223896092453003,12.498932266464234C14.252246092453003,12.072702266464233,14.257506092453003,11.645152266464233,14.239666092453003,11.218312266464233ZM11.016756092453003,13.122842266464234C10.316966092453004,13.122842266464234,9.749676092453003,12.532332266464234,9.749676092453003,11.803902266464235C9.749686092453004,11.075472266464233,10.316976092453004,10.484972266464233,11.016756092453003,10.484972266464233C11.716546092453003,10.484972266464233,12.283836092453003,11.075472266464233,12.283836092453003,11.803892266464233C12.286766092453004,12.533582266464233,11.717756092453003,13.125882266464233,11.016756092453003,13.122842266464234ZM4.329106092453003,9.040142266464233L7.751796092453002,9.040142266464233L7.751796092453002,10.052612266464234L4.329106092453003,10.052612266464234L4.329106092453003,9.040142266464233Z" fill="#FFFFFF" fill-opacity="1"/></g></g><g style="mix-blend-mode:passthrough"><rect x="0" y="0" width="16" height="16" rx="0" fill="#D8D8D8" fill-opacity="0"/></g></g></svg>