<?xml version="1.0" standalone="no"?><!DOCTYPE svg PUBLIC "-//W3C//DTD SVG 1.1//EN" "http://www.w3.org/Graphics/SVG/1.1/DTD/svg11.dtd"><svg t="1659924354907" class="icon" viewBox="0 0 1024 1024" version="1.1" xmlns="http://www.w3.org/2000/svg" p-id="14003" xmlns:xlink="http://www.w3.org/1999/xlink" width="200" height="200"><defs><style type="text/css">@font-face { font-family: feedback-iconfont; src: url("//at.alicdn.com/t/font_1031158_u69w8yhxdu.woff2?t=1630033759944") format("woff2"), url("//at.alicdn.com/t/font_1031158_u69w8yhxdu.woff?t=1630033759944") format("woff"), url("//at.alicdn.com/t/font_1031158_u69w8yhxdu.ttf?t=1630033759944") format("truetype"); }
</style></defs><path d="M1015.466667 490.666667l-234.666667-405.333334c-8.533333-12.8-21.333333-21.333333-36.266667-21.333333H277.333333c-14.933333 0-29.866667 8.533333-36.266666 21.333333L6.4 490.666667c-8.533333 12.8-8.533333 29.866667 0 42.666666l234.666667 405.333334c8.533333 12.8 21.333333 21.333333 36.266666 21.333333h467.2c14.933333 0 29.866667-8.533333 36.266667-21.333333l234.666667-405.333334c8.533333-12.8 8.533333-29.866667 0-42.666666z m-74.666667 42.666666l-196.266667 341.333334c-8.533333 12.8-21.333333 21.333333-36.266666 21.333333H313.6c-14.933333 0-29.866667-8.533333-36.266667-21.333333L78.933333 533.333333c-8.533333-12.8-8.533333-29.866667 0-42.666666L277.333333 149.333333c8.533333-12.8 21.333333-21.333333 36.266667-21.333333h394.666667c14.933333 0 29.866667 8.533333 36.266666 21.333333l196.266667 341.333334c8.533333 12.8 8.533333 29.866667 0 42.666666z" p-id="14004"></path><path d="M509.866667 320c-106.666667 0-192 85.333333-192 192s85.333333 192 192 192 192-85.333333 192-192-85.333333-192-192-192z m0 320c-70.4 0-128-57.6-128-128s57.6-128 128-128 128 57.6 128 128-57.6 128-128 128z" p-id="14005"></path></svg>