<svg xmlns="http://www.w3.org/2000/svg" xmlns:xlink="http://www.w3.org/1999/xlink" fill="none" version="1.1" width="16" height="15.942319869995117" viewBox="0 0 16 15.942319869995117"><g><path d="M8.94241,9.72339C8.53662,9.31759,7.82908,9.31919,7.4265,9.72339L7.0183,10.1316L5.75531,8.86858L6.44283,8.18186C6.85903,7.76566,6.85983,7.08694,6.44283,6.66674L3.77517,3.99989C3.54067,3.76539,3.16047,3.76539,2.92597,3.99989C2.69147,4.23439,2.69147,4.61459,2.92597,4.84909L5.50239,7.4247L3.60069,9.3264L1.02508,6.74998C0.790575,6.51548,0.410375,6.51548,0.175875,6.74998C-0.058625,6.98448,-0.058625,7.36468,0.175875,7.59918L2.84273,10.266C3.05163,10.4757,3.32616,10.5798,3.60069,10.5798C3.87522,10.5798,4.14975,10.4757,4.35865,10.266L4.90611,9.71778L6.1691,10.9808L5.45516,11.6947C5.0331,12.1118,5.03274,12.7931,5.45436,13.2106L7.8707,15.627C8.0724,15.8303,8.34213,15.9423,8.62866,15.9423C8.9152,15.9423,9.18412,15.8303,9.38582,15.6278L11.3579,13.6556C11.5612,13.4531,11.6733,13.1842,11.6733,12.8977C11.6733,12.6111,11.5612,12.3422,11.3587,12.1405L8.94241,9.72339ZM8.62946,14.6873L6.39481,12.4527L8.18445,10.6638L10.4191,12.8977L8.62946,14.6873ZM15.8321,8.33313L13.1652,5.66627C12.7462,5.2494,12.0691,5.2494,11.6501,5.66627L11.1018,6.21453L9.83963,4.95234L10.5552,4.2368C10.9714,3.819,10.9714,3.13948,10.5544,2.72088L8.13643,0.303743C7.73224,-0.101248,7.0271,-0.101248,6.62051,0.303743L4.64838,2.27828C4.23139,2.69705,4.23175,3.37425,4.64918,3.79259L7.06632,6.21133C7.26802,6.41222,7.53695,6.52348,7.82268,6.52348C8.10762,6.52348,8.37654,6.41302,8.58064,6.21053L8.99043,5.80074L10.2526,7.06293L9.5659,7.74966C9.36377,7.95031,9.25048,8.2236,9.25136,8.50841C9.25136,8.79495,9.36421,9.06388,9.5659,9.26477L12.2328,11.9316C12.4668,12.1666,12.8472,12.1666,13.0812,11.9316C13.3158,11.6972,13.3158,11.3169,13.0812,11.0824L10.5055,8.50681L12.4064,6.60512L14.9821,9.18073C15.2173,9.40858,15.5917,9.40586,15.8236,9.17463C16.0555,8.9434,16.0592,8.56899,15.8321,8.33313ZM5.58883,3.03543L7.37847,1.24499L9.61393,3.47964L7.82268,5.27089L5.58883,3.03543Z" fill="#FFFFFF" fill-opacity="1"/></g></svg>